<svg xmlns="http://www.w3.org/2000/svg" width="1400" height="400" version="1.0"><g fill="#fc390e" fill-rule="evenodd"><path d="M466.73 83.274l-8.126 35.156h-29.593l-7.313 31.75h29.594l-17.5 75.72c-4.522 19.588-.942 54.25 39.969 54.25h98.781l8-34.657c-68.567 0-68.576-.005-63.563-21.719l17-73.594h92.032l-17.5 75.72c-4.523 19.588-.942 54.25 39.968 54.25h98.782l8-34.657c-68.568 0-68.576-.005-63.563-21.719l17-73.594h68.563l7.343-31.75h-68.593l8.125-35.156h-82.688l-8.125 35.156h-92.031l8.125-35.156h-82.688zM104.475 118.42L63.98 293.83c-2.407 7.06-6.073 6.683-14.255 7.004l-.962 39.948 67.382-.24c13.075-.722 21.224-8.135 26.599-26.424l45.18-195.698h-83.448zm13.668-59.2l-10.333 44.76h83.448l10.334-44.761h-83.448zm119.304 59.211c-14.439 0-31.026 12.3-34.656 31.75l-16 65.47c-9.365 40.562-4.428 64.5 25.844 64.5h170.843l8-34.657H263.45l6.874-29.844h128.031c2.054-8.895 10.603-21.822 15.125-65.469 1.28-5.545-7.562-31.75-40.812-31.75h-135.22zm68.688 31.75c17.77 0 22.934 5.558 17.218 30.313h-44.906c5.515-23.887 13.161-30.313 27.688-30.313zm491.23-31.76l-29.334 127.063s-8 34.654 40.722 34.654H891.5c-4.13 17.89-6.111 26.472-54.205 26.472H753.92l-7.445 32.247h131.47c60.628 0 82.416 0 89.86-32.247l43.448-188.19h-82.416l-29.335 127.064h-48.094l29.335-127.064h-83.376zm246.247 0l-14.334 62.087h83.747l14.334-62.088h-83.747zm-23 99.629l-14.335 62.088h83.747l14.334-62.088h-83.747zm195.08-158.83l-115.36 247.39h42.172l115.36-247.39h-42.172zm93.373 0l-115.36 247.39h42.172l115.36-247.39h-42.172z" stroke="#000" stroke-width="25" stroke-linejoin="round"/><path d="M466.73 83.274l-8.126 35.156h-29.593l-7.313 31.75h29.594l-17.5 75.72c-4.522 19.588-.942 54.25 39.969 54.25h98.781l8-34.657c-68.567 0-68.576-.005-63.563-21.719l17-73.594h92.032l-17.5 75.72c-4.523 19.588-.942 54.25 39.968 54.25h98.782l8-34.657c-68.568 0-68.576-.005-63.563-21.719l17-73.594h68.563l7.343-31.75h-68.593l8.125-35.156h-82.688l-8.125 35.156h-92.031l8.125-35.156h-82.688zM104.475 118.42L63.98 293.83c-2.407 7.06-6.073 6.683-14.255 7.004l-.962 39.948 67.382-.24c13.075-.722 21.224-8.135 26.599-26.424l45.18-195.698h-83.448zm13.668-59.2l-10.333 44.76h83.448l10.334-44.761h-83.448zm119.304 59.211c-14.439 0-31.026 12.3-34.656 31.75l-16 65.47c-9.365 40.562-4.428 64.5 25.844 64.5h170.843l8-34.657H263.45l6.874-29.844h128.031c2.054-8.895 10.603-21.822 15.125-65.469 1.28-5.545-7.562-31.75-40.812-31.75h-135.22zm68.688 31.75c17.77 0 22.934 5.558 17.218 30.313h-44.906c5.515-23.887 13.161-30.313 27.688-30.313zm491.23-31.76l-29.334 127.063s-8 34.654 40.722 34.654H891.5c-4.13 17.89-6.111 26.472-54.205 26.472H753.92l-7.445 32.247h131.47c60.628 0 82.416 0 89.86-32.247l43.448-188.19h-82.416l-29.335 127.064h-48.094l29.335-127.064h-83.376zm246.247 0l-14.334 62.087h83.747l14.334-62.088h-83.747zm-23 99.629l-14.335 62.088h83.747l14.334-62.088h-83.747zm195.08-158.83l-115.36 247.39h42.172l115.36-247.39h-42.172zm93.373 0l-115.36 247.39h42.172l115.36-247.39h-42.172z"/></g></svg>